<svg class="hey" width="512" height="512" viewBox="0 0 512 512" fill="none" xmlns="http://www.w3.org/2000/svg">
<path id="top" class="test" d="M467 61H45C38.073 61 31.588 62.703 25.721 65.51L255 294.789L306.389 245.402C306.389 245.402 306.393 245.397 306.394 245.395C306.395 245.393 306.399 245.391 306.399 245.391L486.286 65.514C480.418 62.705 473.929 61 467 61Z"/>
<path class="test" d="M507.496 86.728L338.213 256.002L507.49 425.279C510.297 419.412 512 412.927 512 406V106C512 99.077 510.301 92.593 507.496 86.728Z"/>
<path class="test" d="M4.51 86.721C1.703 92.588 0 99.073 0 106V406C0 412.923 1.701 419.409 4.506 425.274L173.789 256L4.51 86.721Z"/>
<path class="test" d="M317.002 277.213L265.606 326.606C262.676 329.536 258.838 331.001 255.001 331.001C251.164 331.001 247.325 329.536 244.396 326.606L195 277.211L25.714 446.486C31.582 449.295 38.071 451 45 451H467C473.927 451 480.412 449.297 486.279 446.49L317.002 277.213Z"/>
</svg>
